<svg width="32" height="33" viewBox="0 0 32 33" fill="none" xmlns="http://www.w3.org/2000/svg">
<path d="M17.3791 6.20283H14.6065C13.6287 6.20283 12.8333 6.99823 12.8333 7.97603V13.0937C12.8333 14.0712 13.6287 14.8666 14.6065 14.8666H17.3791C18.3648 14.8666 19.1667 14.0712 19.1667 13.0937V12.034C19.1667 11.9205 19.0744 11.8286 18.9613 11.8286H18.003C17.8899 11.8286 17.7977 11.9205 17.7977 12.034V12.9339C17.7977 13.2689 17.5189 13.5415 17.1758 13.5415H14.8389C14.4957 13.5415 14.217 13.2689 14.217 12.9339V8.13546C14.217 7.80049 14.4957 7.52793 14.8389 7.52793H17.1758C17.5189 7.52793 17.7977 7.80049 17.7977 8.13546V9.06457C17.7977 9.17805 17.8899 9.26994 18.003 9.26994H18.9613C19.0744 9.26994 19.1667 9.17805 19.1667 9.06457V7.97603C19.1667 6.99823 18.3648 6.20283 17.3791 6.20283Z" fill="#1D1D1B"/>
<path d="M18.9611 18.0456H17.9741C17.8606 18.0456 17.7687 18.1375 17.7687 18.251V21.6602H14.2312V18.251C14.2312 18.1375 14.1393 18.0456 14.0259 18.0456H13.0388C12.9253 18.0456 12.8334 18.1375 12.8334 18.251V26.4961C12.8334 26.6093 12.9253 26.7015 13.0388 26.7015H14.0259C14.1393 26.7015 14.2312 26.6093 14.2312 26.4961V22.9706H17.7687V26.4961C17.7687 26.6093 17.8606 26.7015 17.9741 26.7015H18.9611C19.0746 26.7015 19.1665 26.6093 19.1665 26.4961V18.251C19.1665 18.1375 19.0746 18.0456 18.9611 18.0456Z" fill="#1D1D1B"/>
<path d="M16 1.81733C7.9328 1.81733 1.36933 8.38046 1.36933 16.448C1.36933 24.5152 7.9328 31.0787 16 31.0787C24.0672 31.0787 30.6307 24.5152 30.6307 16.448C30.6307 8.38046 24.0672 1.81733 16 1.81733ZM16 32.448C7.17751 32.448 0 25.2705 0 16.448C0 7.62551 7.17751 0.447999 16 0.447999C24.8225 0.447999 32 7.62551 32 16.448C32 25.2705 24.8225 32.448 16 32.448Z" fill="#1D1D1B"/>
<path d="M7.51161 20.5419L6.49438 19.6252L9.9352 15.8082L10.9524 16.725L7.51161 20.5419Z" fill="#1D1D1B"/>
<path d="M24.4884 20.5419L21.0475 16.725L22.0648 15.8082L25.5056 19.6252L24.4884 20.5419Z" fill="#1D1D1B"/>
</svg>
