<svg xmlns="http://www.w3.org/2000/svg" xmlns:xlink="http://www.w3.org/1999/xlink" width="151" height="151"><defs><path id="a" d="M89.14 6.269c-7.81-7.81-20.471-7.81-28.28 0L6.269 60.859c-7.81 7.81-7.81 20.472 0 28.281l54.59 54.591c7.81 7.81 20.472 7.81 28.281 0l54.591-54.59c7.81-7.81 7.81-20.472 0-28.281L89.141 6.269Z"/></defs><g fill="none" fill-rule="evenodd" transform="translate(.156 .4)"><mask id="b" fill="#fff"><use xlink:href="#a"/></mask><use xlink:href="#a" fill="#08A2E5"/><path fill="#FFF" d="M45.1 113.84c2.49 2.49 31.657 4.444 42.024-5.922 10.367-10.367 13.213-25.663 15.958-35.876 2.744-10.214 5.565-24.24 3.698-26.107-1.868-1.867-17.81 1.627-24.188 3.025-6.377 1.398-25.484 4.32-36.498 15.335-11.015 11.015-12.096 33.26-8.438 40.805l-15.55 15.55s-3.887 3.888-2.02 5.755 3.786 1.194 6.377-1.398c2.592-2.592 57.69-58.935 57.69-58.935s1.35-1.243 2.167-.425c.818.817-.3 2.292-.3 2.292l-40.92 45.9Z" mask="url(#b)"/></g></svg>